<svg xmlns="http://www.w3.org/2000/svg" viewBox="0 0 512 512" role="img" aria-label="캘린더봄">
  <defs>
    <linearGradient id="bg" x1="0" y1="0" x2="1" y2="1">
      <stop offset="0" stop-color="#8a6ad6"/>
      <stop offset="1" stop-color="#5b3ba9"/>
    </linearGradient>
  </defs>
  <rect width="512" height="512" rx="116" fill="url(#bg)"/>
  <!-- 달력 몸통 -->
  <rect x="96" y="128" width="320" height="296" rx="44" fill="#fffdf8"/>
  <rect x="96" y="128" width="320" height="88" rx="44" fill="#2b2144"/>
  <rect x="96" y="188" width="320" height="28" fill="#2b2144"/>
  <!-- 바인더 링 -->
  <rect x="156" y="84" width="28" height="84" rx="14" fill="#fffdf8" stroke="#2b2144" stroke-width="14"/>
  <rect x="328" y="84" width="28" height="84" rx="14" fill="#fffdf8" stroke="#2b2144" stroke-width="14"/>
  <!-- 날짜 점 두 줄 -->
  <g fill="#d9d2ea">
    <circle cx="160" cy="272" r="14"/><circle cx="224" cy="272" r="14"/><circle cx="288" cy="272" r="14"/><circle cx="352" cy="272" r="14"/>
    <circle cx="160" cy="336" r="14"/><circle cx="224" cy="336" r="14"/>
  </g>
  <!-- 오늘 날짜에 핀 꽃잎(봄) -->
  <g transform="translate(322 340) scale(5.2)">
    <path d="M0 -1.4 C -4.6 -1.8 -6 -6.2 -3.7 -9.2 C -2.5 -10.7 -1.2 -9.4 0 -7.7 C 1.2 -9.4 2.5 -10.7 3.7 -9.2 C 6 -6.2 4.6 -1.8 0 -1.4 Z" fill="#7454c8" transform="rotate(-2)"/>
    <path d="M0 -1.4 C -4.6 -1.8 -6 -6.2 -3.7 -9.2 C -2.5 -10.7 -1.2 -9.4 0 -7.7 C 1.2 -9.4 2.5 -10.7 3.7 -9.2 C 6 -6.2 4.6 -1.8 0 -1.4 Z" fill="#7454c8" transform="rotate(74)"/>
    <path d="M0 -1.4 C -4.6 -1.8 -6 -6.2 -3.7 -9.2 C -2.5 -10.7 -1.2 -9.4 0 -7.7 C 1.2 -9.4 2.5 -10.7 3.7 -9.2 C 6 -6.2 4.6 -1.8 0 -1.4 Z" fill="#7454c8" transform="rotate(142)"/>
    <path d="M0 -1.4 C -4.6 -1.8 -6 -6.2 -3.7 -9.2 C -2.5 -10.7 -1.2 -9.4 0 -7.7 C 1.2 -9.4 2.5 -10.7 3.7 -9.2 C 6 -6.2 4.6 -1.8 0 -1.4 Z" fill="#7454c8" transform="rotate(218)"/>
    <path d="M0 -1.4 C -4.6 -1.8 -6 -6.2 -3.7 -9.2 C -2.5 -10.7 -1.2 -9.4 0 -7.7 C 1.2 -9.4 2.5 -10.7 3.7 -9.2 C 6 -6.2 4.6 -1.8 0 -1.4 Z" fill="#7454c8" transform="rotate(286)"/>
    <circle r="2.4" fill="#fffefb"/>
    <circle r="1.2" fill="#7454c8" opacity="0.5"/>
  </g>
</svg>
